<svg viewBox="0 0 400 300" xmlns="http://www.w3.org/2000/svg" role="img" aria-labelledby="mapaTitulo">
  <title id="mapaTitulo">Mapa estilizado de la ubicación de Taberna El Fogón en La Latina, Madrid</title>

  <rect width="400" height="300" fill="#faf1de" />

  <g stroke="#f3d0b3" stroke-width="10">
    <line x1="0" y1="60" x2="400" y2="60" />
    <line x1="0" y1="150" x2="400" y2="150" />
    <line x1="0" y1="235" x2="400" y2="235" />
  </g>
  <g stroke="#f3d0b3" stroke-width="10">
    <line x1="90" y1="0" x2="90" y2="300" />
    <line x1="220" y1="0" x2="220" y2="300" />
    <line x1="320" y1="0" x2="320" y2="300" />
  </g>

  <g stroke="#e9ae7e" stroke-width="4" stroke-dasharray="2 10" stroke-linecap="round">
    <line x1="0" y1="60" x2="400" y2="60" />
    <line x1="0" y1="150" x2="400" y2="150" />
    <line x1="0" y1="235" x2="400" y2="235" />
    <line x1="90" y1="0" x2="90" y2="300" />
    <line x1="220" y1="0" x2="220" y2="300" />
    <line x1="320" y1="0" x2="320" y2="300" />
  </g>

  <g fill="#eab3b8" opacity="0.5">
    <rect x="130" y="80" width="70" height="50" rx="4" />
    <rect x="240" y="170" width="60" height="45" rx="4" />
    <rect x="20" y="170" width="50" height="45" rx="4" />
  </g>

  <g transform="translate(220 150)">
    <path
      d="M0 -46c-16 0-29 13-29 29 0 21 29 46 29 46s29-25 29-46c0-16-13-29-29-29z"
      fill="#82232c"
      stroke="#48181d"
      stroke-width="2"
    />
    <circle cx="0" cy="-17" r="10" fill="#faf1de" />
  </g>

  <g transform="translate(220 208)" text-anchor="middle" font-family="Georgia, serif">
    <rect x="-88" y="0" width="176" height="26" rx="13" fill="#592d1c" opacity="0.9" />
    <text x="0" y="18" fill="#faf1de" font-size="14" font-weight="700">
      Calle de la Cava Baja, 22
    </text>
  </g>
</svg>
